<svg width="61" height="70" viewBox="0 0 61 70" fill="none" xmlns="http://www.w3.org/2000/svg">
<path d="M29.7938 16.936C33.6598 16.936 37.0513 15.4264 39.9682 12.407C42.885 9.38766 44.3435 5.87668 44.3435 1.87408C44.3435 1.43448 44.3087 0.809789 44.2393 0C43.73 0.0694105 43.3481 0.127253 43.0934 0.173526C39.5283 0.682537 36.3915 2.42937 33.683 5.41395C30.9745 8.3986 29.6202 11.5915 29.6202 14.9926C29.6202 15.3859 29.6781 16.0338 29.7938 16.936ZM43.649 70C46.4038 70 49.448 68.1144 52.7816 64.3431C56.1152 60.5718 58.6616 56.1411 60.4211 51.0511C53.8696 47.6731 50.5939 42.826 50.5939 36.5096C50.5939 31.2345 53.2446 26.7229 58.5459 22.9747C54.8651 18.3705 50.0037 16.0684 43.9615 16.0684C41.415 16.0684 39.0885 16.4501 36.9819 17.2137L35.6624 17.6995L33.8914 18.3936C32.7338 18.8332 31.6805 19.0531 30.7314 19.0531C29.9906 19.0531 29.0182 18.7985 27.8145 18.2895L26.4602 17.7342L25.1755 17.2137C23.3003 16.427 21.2863 16.0337 19.1334 16.0337C13.369 16.0337 8.7391 17.9772 5.24344 21.8642C1.74779 25.7511 0 30.8759 0 37.2385C0 46.1923 2.80111 54.4638 8.40339 62.0526C12.2926 67.3508 15.8461 70 19.0639 70C20.4298 70 21.784 69.7339 23.1267 69.2018L24.8282 68.5077L26.1825 68.0218C28.0808 67.3508 29.8285 67.0153 31.4259 67.0153C33.1158 67.0153 35.0604 67.4435 37.2597 68.2994L38.3361 68.7159C40.5816 69.572 42.3527 70 43.649 70Z" fill="rgb(0,0,0)"/>
</svg>
