<svg width="69" height="70" viewBox="0 0 69 70" fill="none" xmlns="http://www.w3.org/2000/svg">
<path d="M68.2715 29.6078L67.9183 28.1094H35.3496V41.8938H54.809C53.7975 46.6969 50.9425 50.3612 47.3825 52.823L58.296 61.3362C58.7375 60.9228 59.1682 60.4955 59.5871 60.0547C65.5777 53.7422 68.6761 45.0078 68.6761 35.8516C68.6761 31.9969 68.2886 29.7078 68.2715 29.6078Z" fill="#4285F4"/>
<path d="M58.2889 61.3342L47.3754 52.821C43.8247 55.2763 39.5726 56.5355 35.7487 56.5355C30.1768 56.5355 24.3034 54.1917 20.4159 50.4246C18.3648 48.4052 16.7322 46.0012 15.6115 43.35C15.4318 42.925 15.2659 42.4949 15.1138 42.0605L3.66992 50.8784C5.17756 53.9412 7.14728 56.8006 9.57526 59.3121C16.3737 66.3308 26.0018 69.9996 35.9159 69.9996C44.3161 69.9996 52.3084 66.9345 58.2889 61.3342Z" fill="#34A852"/>
<path d="M15.1166 42.0623L3.67279 50.8802C1.22968 45.9168 0 40.419 0 35.0013C0 29.7054 1.24185 24.1602 3.67446 19.1602L15.0949 28.0013C14.3222 30.2364 13.8875 32.6065 13.8875 34.9763C13.9037 37.3931 14.3201 39.7873 15.1166 42.0623Z" fill="#F9BB07"/>
<path d="M3.66992 19.1591L15.0897 28C16.2102 24.7589 18.0414 21.8017 20.2886 19.5406C24.0855 15.7203 29.8199 13.5828 35.5214 13.5828C42.0511 13.5828 46.7308 17.05 48.4808 18.6313L58.2761 8.8875C55.4027 6.3625 47.5089 0 35.2058 0C25.7136 0 16.612 3.63594 9.95892 10.2672C7.3622 12.8497 5.2615 15.8878 3.66992 19.1591Z" fill="#E94135"/>
</svg>
