<svg width="199" height="63" viewBox="0 0 199 63" fill="none" xmlns="http://www.w3.org/2000/svg">
<path d="M30.704 34.328C30.704 37.016 30.0427 39.3627 28.72 41.368C27.3973 43.3733 25.4773 44.9307 22.96 46.04C20.4853 47.1067 17.456 47.64 13.872 47.64C12.2933 47.64 10.736 47.5333 9.2 47.32C7.70667 47.1067 6.256 46.808 4.848 46.424C3.48267 45.9973 2.18133 45.4853 0.944 44.888V35.864C3.12 36.8027 5.36 37.6773 7.664 38.488C10.0107 39.256 12.336 39.64 14.64 39.64C16.2187 39.64 17.4773 39.4267 18.416 39C19.3973 38.5733 20.1013 37.9973 20.528 37.272C20.9973 36.5467 21.232 35.7147 21.232 34.776C21.232 33.624 20.8267 32.6427 20.016 31.832C19.248 31.0213 18.2027 30.2747 16.88 29.592C15.5573 28.8667 14.0427 28.0987 12.336 27.288C11.2693 26.776 10.1173 26.1787 8.88 25.496C7.64267 24.7707 6.448 23.896 5.296 22.872C4.18667 21.8053 3.26933 20.5253 2.544 19.032C1.81867 17.5387 1.456 15.7467 1.456 13.656C1.456 10.9253 2.07467 8.6 3.312 6.68C4.592 4.71733 6.384 3.224 8.688 2.2C11.0347 1.176 13.7867 0.663998 16.944 0.663998C19.3333 0.663998 21.5947 0.941331 23.728 1.496C25.904 2.05067 28.1653 2.84 30.512 3.864L27.376 11.416C25.2853 10.5627 23.408 9.90133 21.744 9.432C20.08 8.96266 18.3733 8.728 16.624 8.728C15.4293 8.728 14.4053 8.92 13.552 9.304C12.6987 9.688 12.0373 10.2213 11.568 10.904C11.1413 11.5867 10.928 12.3973 10.928 13.336C10.928 14.4027 11.248 15.32 11.888 16.088C12.528 16.8133 13.488 17.5173 14.768 18.2C16.048 18.8827 17.648 19.6933 19.568 20.632C21.9147 21.7413 23.8987 22.8933 25.52 24.088C27.184 25.2827 28.464 26.6907 29.36 28.312C30.256 29.9333 30.704 31.9387 30.704 34.328ZM51.795 33.752V25.944H68.563V33.752H51.795ZM92.885 47V1.304H102.549V39H121.109V47H92.885ZM160.049 29.464C160.049 32.3653 159.643 34.9467 158.833 37.208C158.065 39.4693 156.934 41.3893 155.441 42.968C153.99 44.504 152.219 45.6773 150.129 46.488C148.038 47.256 145.67 47.64 143.025 47.64C140.593 47.64 138.331 47.256 136.241 46.488C134.193 45.6773 132.422 44.504 130.929 42.968C129.435 41.3893 128.262 39.4693 127.409 37.208C126.598 34.9467 126.193 32.3653 126.193 29.464C126.193 25.5813 126.875 22.3173 128.241 19.672C129.606 16.984 131.569 14.936 134.129 13.528C136.689 12.12 139.718 11.416 143.217 11.416C146.502 11.416 149.403 12.12 151.921 13.528C154.438 14.936 156.422 16.984 157.873 19.672C159.323 22.3173 160.049 25.5813 160.049 29.464ZM135.921 29.464C135.921 31.768 136.155 33.7093 136.625 35.288C137.137 36.824 137.926 37.9973 138.993 38.808C140.059 39.576 141.446 39.96 143.153 39.96C144.859 39.96 146.225 39.576 147.249 38.808C148.315 37.9973 149.083 36.824 149.553 35.288C150.065 33.7093 150.321 31.768 150.321 29.464C150.321 27.16 150.065 25.24 149.553 23.704C149.083 22.168 148.315 21.016 147.249 20.248C146.182 19.48 144.795 19.096 143.089 19.096C140.571 19.096 138.737 19.9707 137.585 21.72C136.475 23.4267 135.921 26.008 135.921 29.464ZM179.258 11.416C181.391 11.416 183.311 11.8427 185.018 12.696C186.724 13.5493 188.175 14.8293 189.37 16.536H189.626L190.394 12.056H198.458V47.064C198.458 50.392 197.796 53.1867 196.474 55.448C195.194 57.7093 193.252 59.416 190.65 60.568C188.047 61.7627 184.826 62.36 180.986 62.36C178.511 62.36 176.207 62.2107 174.074 61.912C171.983 61.6133 169.935 61.08 167.93 60.312V52.696C169.38 53.2933 170.831 53.784 172.282 54.168C173.775 54.5947 175.29 54.8933 176.826 55.064C178.404 55.2773 179.983 55.384 181.562 55.384C184.036 55.384 185.871 54.7227 187.066 53.4C188.303 52.0773 188.922 50.0933 188.922 47.448V46.744C188.922 46.0187 188.943 45.272 188.986 44.504C189.071 43.736 189.135 43.0533 189.178 42.456H188.922C187.727 44.2907 186.298 45.6133 184.634 46.424C182.97 47.2347 181.092 47.64 179.002 47.64C174.863 47.64 171.62 46.0613 169.274 42.904C166.97 39.704 165.818 35.2667 165.818 29.592C165.818 25.752 166.351 22.488 167.418 19.8C168.484 17.0693 170.02 15 172.026 13.592C174.074 12.1413 176.484 11.416 179.258 11.416ZM182.266 19.16C180.772 19.16 179.514 19.5653 178.49 20.376C177.508 21.144 176.762 22.3173 176.25 23.896C175.78 25.432 175.546 27.3733 175.546 29.72C175.546 33.2187 176.1 35.8427 177.21 37.592C178.319 39.2987 180.047 40.152 182.394 40.152C183.631 40.152 184.698 40.0027 185.594 39.704C186.49 39.3627 187.215 38.8293 187.77 38.104C188.367 37.336 188.815 36.3547 189.114 35.16C189.412 33.9653 189.562 32.5147 189.562 30.808V29.656C189.562 27.1387 189.306 25.112 188.794 23.576C188.282 22.04 187.492 20.9307 186.426 20.248C185.359 19.5227 183.972 19.16 182.266 19.16Z" fill="black"/>
</svg>
