<svg width="757" height="129" viewBox="0 0 757 129" fill="none" xmlns="http://www.w3.org/2000/svg">
<path d="M60.408 72.656C60.408 78.032 59.0853 82.7253 56.44 86.736C53.7947 90.7467 49.9547 93.8613 44.92 96.08C39.9707 98.2133 33.912 99.28 26.744 99.28C23.5867 99.28 20.472 99.0667 17.4 98.64C14.4133 98.2133 11.512 97.616 8.696 96.848C5.96533 95.9947 3.36267 94.9707 0.888 93.776V75.728C5.24 77.6053 9.72 79.3547 14.328 80.976C19.0213 82.512 23.672 83.28 28.28 83.28C31.4373 83.28 33.9547 82.8533 35.832 82C37.7947 81.1467 39.2027 79.9947 40.056 78.544C40.9947 77.0933 41.464 75.4293 41.464 73.552C41.464 71.248 40.6533 69.2853 39.032 67.664C37.496 66.0427 35.4053 64.5493 32.76 63.184C30.1147 61.7333 27.0853 60.1973 23.672 58.576C21.5387 57.552 19.2347 56.3573 16.76 54.992C14.2853 53.5413 11.896 51.792 9.592 49.744C7.37333 47.6107 5.53867 45.0507 4.088 42.064C2.63733 39.0773 1.912 35.4933 1.912 31.312C1.912 25.8507 3.14933 21.2 5.624 17.36C8.184 13.4347 11.768 10.448 16.376 8.39999C21.0693 6.35199 26.5733 5.328 32.888 5.328C37.6667 5.328 42.1893 5.88266 46.456 6.992C50.808 8.10133 55.3307 9.68 60.024 11.728L53.752 26.832C49.5707 25.1253 45.816 23.8027 42.488 22.864C39.16 21.9253 35.7467 21.456 32.248 21.456C29.8587 21.456 27.8107 21.84 26.104 22.608C24.3973 23.376 23.0747 24.4427 22.136 25.808C21.2827 27.1733 20.856 28.7947 20.856 30.672C20.856 32.8053 21.496 34.64 22.776 36.176C24.056 37.6267 25.976 39.0347 28.536 40.4C31.096 41.7653 34.296 43.3867 38.136 45.264C42.8293 47.4827 46.7973 49.7867 50.04 52.176C53.368 54.5653 55.928 57.3813 57.72 60.624C59.512 63.8667 60.408 67.8773 60.408 72.656ZM94.556 28.112V98H75.484V28.112H94.556ZM85.084 0.719994C87.9 0.719994 90.332 1.40266 92.38 2.768C94.428 4.048 95.452 6.48 95.452 10.064C95.452 13.5627 94.428 15.9947 92.38 17.36C90.332 18.7253 87.9 19.408 85.084 19.408C82.1827 19.408 79.708 18.7253 77.66 17.36C75.6973 15.9947 74.716 13.5627 74.716 10.064C74.716 6.48 75.6973 4.048 77.66 2.768C79.708 1.40266 82.1827 0.719994 85.084 0.719994ZM196.532 26.832C204.468 26.832 210.441 28.88 214.452 32.976C218.548 36.9867 220.596 43.472 220.596 52.432V98H201.524V57.168C201.524 52.1333 200.671 48.3787 198.964 45.904C197.257 43.344 194.612 42.064 191.028 42.064C185.993 42.064 182.409 43.856 180.276 47.44C178.143 51.024 177.076 56.1867 177.076 62.928V98H158.004V57.168C158.004 53.84 157.62 51.0667 156.852 48.848C156.084 46.6293 154.932 44.9653 153.396 43.856C151.86 42.6613 149.897 42.064 147.508 42.064C144.009 42.064 141.236 42.96 139.188 44.752C137.14 46.544 135.689 49.1467 134.836 52.56C133.983 55.9733 133.556 60.1547 133.556 65.104V98H114.484V28.112H129.076L131.636 37.072H132.66C134.111 34.6827 135.903 32.7627 138.036 31.312C140.169 29.776 142.516 28.6667 145.076 27.984C147.721 27.216 150.367 26.832 153.012 26.832C158.132 26.832 162.484 27.6853 166.068 29.392C169.652 31.0133 172.383 33.5733 174.26 37.072H175.924C178.057 33.488 181.001 30.8853 184.756 29.264C188.596 27.6427 192.521 26.832 196.532 26.832ZM279.146 26.832C286.997 26.832 293.354 29.904 298.218 36.048C303.082 42.1067 305.514 51.0667 305.514 62.928C305.514 70.864 304.362 77.5627 302.058 83.024C299.754 88.4 296.597 92.4533 292.586 95.184C288.575 97.9147 283.925 99.28 278.634 99.28C275.306 99.28 272.405 98.8533 269.93 98C267.541 97.1467 265.493 96.0373 263.786 94.672C262.079 93.3067 260.586 91.856 259.306 90.32H258.282C258.623 91.9413 258.879 93.648 259.05 95.44C259.221 97.1467 259.306 98.8533 259.306 100.56V128.72H240.234V28.112H255.722L258.41 37.2H259.306C260.586 35.3227 262.122 33.616 263.914 32.08C265.706 30.4587 267.839 29.1787 270.314 28.24C272.874 27.3013 275.818 26.832 279.146 26.832ZM273.002 42.064C269.674 42.064 267.029 42.7467 265.066 44.112C263.103 45.4773 261.653 47.568 260.714 50.384C259.861 53.1147 259.391 56.5707 259.306 60.752V62.8C259.306 67.3227 259.733 71.1627 260.586 74.32C261.439 77.392 262.89 79.7387 264.938 81.36C266.986 82.9813 269.759 83.792 273.258 83.792C276.159 83.792 278.549 82.9813 280.426 81.36C282.303 79.7387 283.711 77.3493 284.65 74.192C285.589 71.0347 286.058 67.1947 286.058 62.672C286.058 55.8453 284.991 50.7253 282.858 47.312C280.81 43.8133 277.525 42.064 273.002 42.064ZM340.306 98H321.234V0.719994H340.306V98ZM389.034 26.832C395.519 26.832 401.066 28.0693 405.674 30.544C410.367 33.0187 413.994 36.6027 416.554 41.296C419.114 45.9893 420.394 51.7493 420.394 58.576V67.792H375.338C375.509 73.168 377.087 77.392 380.074 80.464C383.146 83.536 387.37 85.072 392.746 85.072C397.269 85.072 401.365 84.6453 405.034 83.792C408.703 82.8533 412.501 81.4453 416.426 79.568V94.288C413.013 95.9947 409.386 97.232 405.546 98C401.791 98.8533 397.226 99.28 391.85 99.28C384.853 99.28 378.666 98 373.29 95.44C367.914 92.7947 363.69 88.8267 360.618 83.536C357.546 78.2453 356.01 71.5893 356.01 63.568C356.01 55.376 357.375 48.592 360.106 43.216C362.922 37.7547 366.805 33.6587 371.754 30.928C376.703 28.1973 382.463 26.832 389.034 26.832ZM389.162 40.4C385.493 40.4 382.421 41.5947 379.946 43.984C377.557 46.3733 376.149 50.0853 375.722 55.12H402.474C402.474 52.304 401.962 49.7867 400.938 47.568C399.999 45.3493 398.549 43.6 396.586 42.32C394.623 41.04 392.149 40.4 389.162 40.4ZM462.965 71.504V55.888H496.501V71.504H462.965ZM545.145 98V6.60799H564.473V82H601.593V98H545.145ZM679.472 62.928C679.472 68.7307 678.661 73.8933 677.04 78.416C675.504 82.9387 673.243 86.7787 670.256 89.936C667.355 93.008 663.813 95.3547 659.632 96.976C655.451 98.512 650.715 99.28 645.424 99.28C640.56 99.28 636.037 98.512 631.856 96.976C627.76 95.3547 624.219 93.008 621.232 89.936C618.245 86.7787 615.899 82.9387 614.192 78.416C612.571 73.8933 611.76 68.7307 611.76 62.928C611.76 55.1627 613.125 48.6347 615.856 43.344C618.587 37.968 622.512 33.872 627.632 31.056C632.752 28.24 638.811 26.832 645.808 26.832C652.379 26.832 658.181 28.24 663.216 31.056C668.251 33.872 672.219 37.968 675.12 43.344C678.021 48.6347 679.472 55.1627 679.472 62.928ZM631.216 62.928C631.216 67.536 631.685 71.4187 632.624 74.576C633.648 77.648 635.227 79.9947 637.36 81.616C639.493 83.152 642.267 83.92 645.68 83.92C649.093 83.92 651.824 83.152 653.872 81.616C656.005 79.9947 657.541 77.648 658.48 74.576C659.504 71.4187 660.016 67.536 660.016 62.928C660.016 58.32 659.504 54.48 658.48 51.408C657.541 48.336 656.005 46.032 653.872 44.496C651.739 42.96 648.965 42.192 645.552 42.192C640.517 42.192 636.848 43.9413 634.544 47.44C632.325 50.8533 631.216 56.016 631.216 62.928ZM717.89 26.832C722.157 26.832 725.997 27.6853 729.41 29.392C732.823 31.0987 735.725 33.6587 738.114 37.072H738.626L740.162 28.112H756.29V98.128C756.29 104.784 754.967 110.373 752.322 114.896C749.762 119.419 745.879 122.832 740.674 125.136C735.469 127.525 729.026 128.72 721.346 128.72C716.397 128.72 711.789 128.421 707.522 127.824C703.341 127.227 699.245 126.16 695.234 124.624V109.392C698.135 110.587 701.037 111.568 703.938 112.336C706.925 113.189 709.954 113.787 713.026 114.128C716.183 114.555 719.341 114.768 722.498 114.768C727.447 114.768 731.117 113.445 733.506 110.8C735.981 108.155 737.218 104.187 737.218 98.896V97.488C737.218 96.0373 737.261 94.544 737.346 93.008C737.517 91.472 737.645 90.1067 737.73 88.912H737.218C734.829 92.5813 731.97 95.2267 728.642 96.848C725.314 98.4693 721.559 99.28 717.378 99.28C709.101 99.28 702.615 96.1227 697.922 89.808C693.314 83.408 691.01 74.5333 691.01 63.184C691.01 55.504 692.077 48.976 694.21 43.6C696.343 38.1387 699.415 34 703.426 31.184C707.522 28.2827 712.343 26.832 717.89 26.832ZM723.906 42.32C720.919 42.32 718.402 43.1307 716.354 44.752C714.391 46.288 712.898 48.6347 711.874 51.792C710.935 54.864 710.466 58.7467 710.466 63.44C710.466 70.4373 711.575 75.6853 713.794 79.184C716.013 82.5973 719.469 84.304 724.162 84.304C726.637 84.304 728.77 84.0053 730.562 83.408C732.354 82.7253 733.805 81.6587 734.914 80.208C736.109 78.672 737.005 76.7093 737.602 74.32C738.199 71.9307 738.498 69.0293 738.498 65.616V63.312C738.498 58.2773 737.986 54.224 736.962 51.152C735.938 48.08 734.359 45.8613 732.226 44.496C730.093 43.0453 727.319 42.32 723.906 42.32Z" fill="black"/>
</svg>
