<svg width="34" height="25" viewBox="0 0 34 25" fill="none" xmlns="http://www.w3.org/2000/svg">
<path d="M15.352 17.664C15.352 19.008 15.0213 20.1813 14.36 21.184C13.6987 22.1867 12.7387 22.9653 11.48 23.52C10.2427 24.0533 8.728 24.32 6.936 24.32C6.14667 24.32 5.368 24.2667 4.6 24.16C3.85333 24.0533 3.128 23.904 2.424 23.712C1.74133 23.4987 1.09067 23.2427 0.472 22.944V18.432C1.56 18.9013 2.68 19.3387 3.832 19.744C5.00533 20.128 6.168 20.32 7.32 20.32C8.10933 20.32 8.73867 20.2133 9.208 20C9.69867 19.7867 10.0507 19.4987 10.264 19.136C10.4987 18.7733 10.616 18.3573 10.616 17.888C10.616 17.312 10.4133 16.8213 10.008 16.416C9.624 16.0107 9.10133 15.6373 8.44 15.296C7.77867 14.9333 7.02133 14.5493 6.168 14.144C5.63467 13.888 5.05867 13.5893 4.44 13.248C3.82133 12.8853 3.224 12.448 2.648 11.936C2.09333 11.4027 1.63467 10.7627 1.272 10.016C0.909333 9.26933 0.728 8.37333 0.728 7.328C0.728 5.96267 1.03733 4.8 1.656 3.84C2.296 2.85866 3.192 2.112 4.344 1.6C5.51733 1.088 6.89333 0.831999 8.472 0.831999C9.66667 0.831999 10.7973 0.970666 11.864 1.248C12.952 1.52533 14.0827 1.92 15.256 2.432L13.688 6.208C12.6427 5.78133 11.704 5.45067 10.872 5.216C10.04 4.98133 9.18667 4.864 8.312 4.864C7.71467 4.864 7.20267 4.96 6.776 5.152C6.34933 5.344 6.01867 5.61067 5.784 5.952C5.57067 6.29333 5.464 6.69867 5.464 7.168C5.464 7.70133 5.624 8.16 5.944 8.544C6.264 8.90667 6.744 9.25867 7.384 9.6C8.024 9.94133 8.824 10.3467 9.784 10.816C10.9573 11.3707 11.9493 11.9467 12.76 12.544C13.592 13.1413 14.232 13.8453 14.68 14.656C15.128 15.4667 15.352 16.4693 15.352 17.664ZM19.505 24V1.152H24.337V20H33.617V24H19.505Z" fill="black"/>
</svg>
